<svg width="17" height="17" viewBox="0 0 17 17" fill="none" xmlns="http://www.w3.org/2000/svg">
<path d="M3.71875 3.71875L4.38317 14.3437C4.41433 14.9579 4.86129 15.4062 5.44567 15.4062H11.555C12.1415 15.4062 12.58 14.9579 12.6175 14.3437L13.2812 3.71875" stroke="#704A24" stroke-width="1.5" stroke-linecap="round" stroke-linejoin="round"/>
<path d="M2.65625 3.71875H14.3437" stroke="#704A24" stroke-width="1.5" stroke-linecap="round" stroke-linejoin="round"/>
<path d="M6.375 3.71876V2.39063C6.37472 2.2859 6.39514 2.18216 6.43509 2.08535C6.47504 1.98854 6.53372 1.90058 6.60778 1.82653C6.68183 1.75248 6.76979 1.69379 6.8666 1.65384C6.9634 1.6139 7.06715 1.59347 7.17188 1.59376H9.82813C9.93288 1.59338 10.0367 1.61374 10.1335 1.65365C10.2304 1.69356 10.3184 1.75225 10.3924 1.82632C10.4665 1.90039 10.5252 1.98839 10.5651 2.08524C10.605 2.18209 10.6254 2.28588 10.625 2.39063V3.71876" stroke="#704A24" stroke-width="1.5" stroke-linecap="round" stroke-linejoin="round"/>
</svg>
