<svg width="30" height="30" viewBox="0 0 30 30" fill="none" xmlns="http://www.w3.org/2000/svg">
<path d="M3.16609 11.5957C3.38995 11.3739 3.6924 11.2497 4.00749 11.25H25.9925C26.3077 11.2497 26.6103 11.3739 26.8343 11.5956C27.0584 11.8173 27.1858 12.1186 27.1887 12.4338L27.1537 12.7563L24.125 23.4375C23.9803 23.9369 23.6771 24.3758 23.261 24.6876C22.845 24.9995 22.3387 25.1675 21.8187 25.1663H8.17874C7.66037 25.1682 7.15565 25.0001 6.74185 24.6879C6.32804 24.3757 6.02794 23.9365 5.88749 23.4375L2.85999 12.7563C2.82743 12.6519 2.8114 12.5431 2.81249 12.4338C2.81513 12.1187 2.94224 11.8174 3.16609 11.5957Z" stroke="#704A24" stroke-width="1.5" stroke-linejoin="round"/>
<path d="M9.375 11.25L15 3.75L20.625 11.25" stroke="#704A24" stroke-width="1.5" stroke-linejoin="round"/>
</svg>
