<svg width="24" height="24" viewBox="0 0 24 24" fill="none" xmlns="http://www.w3.org/2000/svg">
<path d="M7 10C7.63543 8.9188 8.59762 7.89981 9.81446 7.00147L9.94305 7.0006L11 7M8.44309 7.18855C8.54766 7.16739 8.65307 7.14819 8.75925 7.13099C11.5701 8.31706 13.7482 10.0192 14.8872 11.9147M13 7L13.4793 7.00053C13.7328 7.00052 13.9838 7.01218 14.2313 7.03496C15.4267 7.92545 16.3726 8.9324 17 10M9.46018 11.9147C10.575 10.0658 12.685 8.40155 15.4089 7.22311C15.5288 7.24836 15.6477 7.2765 15.7652 7.30714M20.4264 12.2414L20.652 13.1137C21.135 14.982 20.0121 16.8881 18.1438 17.3712C17.8581 17.4451 17.5642 17.4825 17.2692 17.4825L6.4942 17.4827C4.56446 17.4827 3 15.9185 3 13.9887C3 13.6936 3.03738 13.3996 3.11126 13.1139L3.33675 12.2419C4.1346 9.15627 6.91824 7.0008 10.1053 7.00063H13.658C16.845 7.00063 19.6286 9.15593 20.4264 12.2414Z" stroke="#1C140C" stroke-width="1.00088" stroke-linejoin="round"/>
</svg>
