<svg width="24" height="24" viewBox="0 0 24 24" fill="none" xmlns="http://www.w3.org/2000/svg">
<path d="M4 15.7059H20M4 15.7059V19H20V15.7059M4 15.7059V10.4067C4 10.4035 4.00263 10.4009 4.00587 10.4009H19.9941M20 15.7059V10.4067C20 10.4035 19.9974 10.4009 19.9941 10.4009M19.9941 10.4009C19.9974 10.4009 20 10.3982 20 10.395L19.9992 10.3893L19.995 10.2006C19.9117 8.52702 18.7897 7.12298 17.2521 6.60333L17.216 6.613L17.222 6.75M19.9941 10.4009H4.03964C4.0364 10.4009 4.03378 10.3982 4.03378 10.395C4.03378 10.3924 4.03547 10.3901 4.03794 10.3894L11.5789 8.10776L13.874 7.48283C13.7708 7.25991 13.7132 7.01166 13.7132 6.75M17.222 6.75C17.222 5.7835 16.4366 5 15.4676 5C14.4987 5 13.7132 5.7835 13.7132 6.75M17.222 6.75C17.222 7.7165 16.4366 8.5 15.4676 8.5C14.4987 8.5 13.7132 7.7165 13.7132 6.75" stroke="#1C140C" stroke-linejoin="round"/>
</svg>
