<svg width="22" height="18" viewBox="0 0 22 18" fill="none" xmlns="http://www.w3.org/2000/svg">
<path d="M3.22222 4.2H18.7778M3.22222 4.2V14.8667H18.7778V4.2M3.22222 4.2V8.4667L4.05588 8.0665C4.89103 7.66564 5.88728 7.82512 6.55556 8.4667C7.20735 9.0924 8.20295 9.1901 8.96397 8.7031L9.3333 8.4667C10.3493 7.81644 11.6507 7.81644 12.6667 8.4667L13.036 8.7031C13.797 9.1901 14.7927 9.0924 15.4444 8.4667C16.1127 7.82512 17.109 7.66564 17.9441 8.0665L18.7778 8.4667V4.2M6.55556 4.2C7.16921 4.2 7.66667 3.72244 7.66667 3.13333C7.66667 2.7406 7.2963 2.02949 6.55556 1C5.81481 2.02949 5.44444 2.7406 5.44444 3.13333C5.44444 3.72244 5.94191 4.2 6.55556 4.2ZM11 4.2C11.6136 4.2 12.1111 3.72244 12.1111 3.13333C12.1111 2.7406 11.7407 2.02949 11 1C10.2593 2.02949 9.8889 2.7406 9.8889 3.13333C9.8889 3.72244 10.3864 4.2 11 4.2ZM15.4444 4.2C16.0581 4.2 16.5556 3.72244 16.5556 3.13333C16.5556 2.7406 16.1852 2.02949 15.4444 1C14.7037 2.02949 14.3333 2.7406 14.3333 3.13333C14.3333 3.72244 14.8308 4.2 15.4444 4.2ZM3.13333 17H18.8667C20.0449 17 21 16.0449 21 14.8667H1C1 16.0449 1.95513 17 3.13333 17Z" stroke="#1C140C" stroke-linejoin="round"/>
</svg>
