<svg width="24" height="24" viewBox="0 0 24 24" fill="none" xmlns="http://www.w3.org/2000/svg">
<path d="M6.2738 6.32446L19.7968 9.94793" stroke="#1C140C" stroke-linecap="round"/>
<path d="M8.00185 7.89649C8.02789 7.76163 8.08143 7.63358 8.15914 7.52033C8.23684 7.40708 8.33704 7.31104 8.45349 7.23822C8.56994 7.16539 8.70015 7.11734 8.83599 7.09705C8.97183 7.07676 9.11039 7.08467 9.24304 7.12028L16.8275 9.15253C16.9601 9.18812 17.0839 9.25062 17.1913 9.33614C17.2986 9.42166 17.3872 9.52837 17.4516 9.64962C17.5159 9.77087 17.5546 9.90407 17.5652 10.0409C17.5758 10.1778 17.5582 10.3153 17.5133 10.4451L13.5797 21.8144C13.4971 22.0533 13.327 22.2521 13.1037 22.3708C12.8804 22.4894 12.6205 22.519 12.3762 22.4537L6.44641 20.8648C6.20221 20.7992 5.99191 20.6436 5.85784 20.4292C5.72377 20.2149 5.67589 19.9577 5.72382 19.7094L8.00089 7.89623L8.00185 7.89649Z" stroke="#1C140C" stroke-linecap="round"/>
<path d="M13.8117 5.2386L14.3294 3.30675C14.398 3.05057 14.5656 2.83215 14.7953 2.69954C15.025 2.56693 15.2979 2.531 15.5541 2.59964L17.003 2.98787" stroke="#1C140C" stroke-linecap="round"/>
<path d="M9.11348 4.84503C9.21155 4.62922 9.3831 4.45526 9.59753 4.35419C9.81195 4.25313 10.0553 4.23152 10.2842 4.29323L17.3412 6.18416C17.5699 6.24553 17.7693 6.386 17.9041 6.58059C18.0388 6.77518 18.1002 7.01127 18.0773 7.24687L17.8649 9.4303L8.20566 6.84211L9.11348 4.84503Z" stroke="#1C140C" stroke-linecap="round"/>
</svg>
