<svg width="24" height="24" viewBox="0 0 24 24" fill="none" xmlns="http://www.w3.org/2000/svg">
<path d="M8 12C8 9.2075 9.63518 6.79691 12.0007 5.67398C11.0913 5.24182 10.0739 5 9 5C5.13401 5 2 8.13401 2 12C2 15.866 5.13401 19 9 19C10.0739 19 11.0913 18.7582 12.0003 18.3265C9.63518 17.2031 8 14.7925 8 12ZM8 12C8 8.13401 11.134 5 15 5C15.3117 5 15.645 5 16 5L18 7V9L20 10V13L21.4689 14.6794C20.886 15.7631 20.3796 16.5199 19.9497 16.9497C18.683 18.2165 16.933 19 15 19C11.134 19 8 15.866 8 12ZM14 10C14.5523 10 15 9.55228 15 9C15 8.44772 14.5523 8 14 8C13.4477 8 13 8.44772 13 9C13 9.55228 13.4477 10 14 10ZM12 15C12.5523 15 13 14.5523 13 14C13 13.4477 12.5523 13 12 13C11.4477 13 11 13.4477 11 14C11 14.5523 11.4477 15 12 15ZM17 15C17.5523 15 18 14.5523 18 14C18 13.4477 17.5523 13 17 13C16.4477 13 16 13.4477 16 14C16 14.5523 16.4477 15 17 15Z" stroke="#1C140C" stroke-linejoin="round"/>
</svg>
