<svg width="24" height="24" viewBox="0 0 24 24" fill="none" xmlns="http://www.w3.org/2000/svg">
<path d="M9.05741 5.91359L9.42235 5.78686C11.0919 5.20711 12.9082 5.20711 14.5778 5.78686L14.9427 5.91359C15.9749 6.272 16.521 7.39929 16.1626 8.43145C16.1262 8.53623 16.0811 8.63776 16.0277 8.73498C15.2844 10.0882 14.8375 11.584 14.7167 13.1232L14.5778 14.894C12.9517 15.691 11.0484 15.691 9.42235 14.894L9.28339 13.1232C9.1626 11.584 8.71571 10.0882 7.97239 8.73498C7.44635 7.77733 7.79623 6.57455 8.75388 6.0485C8.85109 5.9951 8.95263 5.94997 9.05741 5.91359ZM4.68677 14.5093L6.69107 15.6881C7.13405 15.9486 7.7041 15.8061 7.97239 15.3678C8.28436 14.8581 8.7677 14.4762 9.33572 14.2906L9.42235 14.2623L9.3469 13.4488C9.18413 11.6937 8.66222 9.99078 7.81359 8.44588L7.40852 7.70847L6.57145 8.04762C5.17695 8.61263 4.07482 9.72428 3.52183 11.1236C3.02332 12.385 3.51762 13.8216 4.68677 14.5093ZM3.26003 13.6701L3.86418 14.0254L5.07248 14.7361L5.65526 15.0789C5.97975 15.2697 6.09347 15.6841 5.91184 16.0138L4.26695 19.0001C3.14973 17.6062 2.74431 15.7721 3.16996 14.0372L3.26003 13.6701ZM19.3133 14.5093L17.309 15.6881C16.8661 15.9486 16.296 15.8061 16.0277 15.3678C15.7157 14.8581 15.2324 14.4762 14.6644 14.2906L14.5778 14.2623L14.6532 13.4488C14.816 11.6937 15.3379 9.99078 16.1865 8.44588L16.5916 7.70847L17.4287 8.04762C18.8232 8.61263 19.9253 9.72428 20.4783 11.1236C20.9768 12.385 20.4825 13.8216 19.3133 14.5093ZM20.7401 13.6701L20.1359 14.0254L18.9276 14.7361L18.3448 15.0789C18.0204 15.2697 17.9066 15.6841 18.0883 16.0138L19.7332 19.0001C20.8504 17.6062 21.2558 15.7721 20.8301 14.0372L20.7401 13.6701Z" stroke="#1C140C" stroke-linejoin="round"/>
</svg>
