<svg width="24" height="24" viewBox="0 0 24 24" fill="none" xmlns="http://www.w3.org/2000/svg">
<path d="M13.7143 4.7C13.7143 5.63888 12.9468 6.4 12 6.4C11.0532 6.4 10.2857 5.63888 10.2857 4.7M13.7143 4.7C13.7143 3.76112 12.9468 3 12 3C11.0532 3 10.2857 3.76112 10.2857 4.7M13.7143 4.7C13.7143 4.76116 13.711 4.82157 13.7047 4.88107C17.1951 5.63114 19.8369 8.64255 19.9927 12.2918L19.9802 12.0698C19.9932 12.1613 20 12.2549 20 12.35C20 13.4454 19.1046 14.3333 18 14.3333M10.2857 4.7C10.2857 4.76116 10.289 4.82157 10.2965 4.88024C6.9007 5.61055 4.30868 8.47906 4.02568 11.9931L4.02169 12.0569C4.0074 12.1526 4 12.2504 4 12.35C4 13.4454 4.89543 14.3333 6 14.3333M18 14.3333C16.9456 14.3333 16.0818 13.5243 16.0055 12.498L15.999 12.362L15.9945 12.498C15.9182 13.5243 15.0544 14.3333 14 14.3333M18 14.3333C18.2993 14.3333 18.5833 14.2681 18.8383 14.1512L17.7143 20H6.28571L5.16182 14.1513C5.41676 14.2681 5.7007 14.3333 6 14.3333M18 14.3333C16.8954 14.3333 16 13.4454 16 12.35M6 14.3333C7.05048 14.3333 7.9118 13.5302 7.99364 12.5094L7.999 12.362L8.00549 12.498C8.08183 13.5243 8.94564 14.3333 10 14.3333M6 14.3333C7.10457 14.3333 8 13.4454 8 12.35C8 13.4454 8.89543 14.3333 10 14.3333M14 14.3333C12.9456 14.3333 12.0818 13.5243 12.0055 12.498L11.999 12.362M14 14.3333C12.8954 14.3333 12 13.4454 12 12.35L11.999 12.362M14 14.3333C15.1046 14.3333 16 13.4454 16 12.35M16 12.35L16.002 12.278C15.9996 12.3023 16 12.3261 16 12.35ZM10 14.3333C11.0544 14.3333 11.9182 13.5243 11.9945 12.498L11.999 12.362M10 14.3333C11.1005 14.3333 11.9924 13.4518 11.999 12.362M15.5714 16.0333L15.2857 18.3M12.1429 16.0333V18.3M8.71429 16.0333L9 18.3" stroke="#1C140C" stroke-linejoin="round"/>
</svg>
