<svg width="24" height="24" viewBox="0 0 24 24" fill="none" xmlns="http://www.w3.org/2000/svg">
<path d="M12 21C13.5822 20.9999 15.1288 20.5306 16.4443 19.6514C17.7598 18.7723 18.7851 17.5228 19.3905 16.061C19.9959 14.5992 20.1542 12.9907 19.8455 11.439C19.5368 9.88716 18.7748 8.46176 17.656 7.343C16.09 5.777 14 5 11.986 3C9.49999 5 8.70001 10.6 8.70001 12.6C6.70001 11.6 6.34299 7.343 6.34299 7.343C5.22411 8.46182 4.46214 9.88731 4.15343 11.4392C3.84473 12.9911 4.00315 14.5997 4.60868 16.0615C5.2142 17.5234 6.23963 18.7728 7.55528 19.6519C8.87092 20.5309 10.4177 21.0001 12 21Z" stroke="#996531" stroke-linecap="round" stroke-linejoin="round"/>
</svg>
