<svg width="82" height="52" viewBox="0 0 82 52" fill="none" xmlns="http://www.w3.org/2000/svg">
<mask id="path-1-outside-1_1356_11966" maskUnits="userSpaceOnUse" x="0" y="0.337921" width="82" height="52" fill="black">
<rect fill="white" y="0.337921" width="82" height="52"/>
<path d="M13.786 7.25203C13.786 8.14593 13.5705 8.95204 13.1395 9.67035C12.7245 10.3887 12.1019 10.9473 11.2719 11.3464C12.3414 11.6976 13.1714 12.2323 13.762 12.9506C14.3686 13.669 14.6719 14.4671 14.6719 15.345C14.6719 16.7976 14.177 17.9469 13.1874 18.7929C12.1977 19.6389 10.6174 20.0619 8.44651 20.0619H1.7662L1.47888 19.2479L2.02958 19.1042C2.63616 18.9286 3.0432 18.6971 3.25071 18.4098C3.45823 18.1225 3.56198 17.6117 3.56198 16.8774V5.0492C3.56198 4.84169 3.52207 4.69803 3.44226 4.61822C3.36245 4.52244 3.22677 4.47455 3.03522 4.47455H1.64648L1.35916 3.58863C2.04554 3.31727 2.94743 3.07783 4.0648 2.87032C5.18218 2.64685 6.25964 2.53511 7.29721 2.53511C9.48407 2.53511 11.1122 2.97408 12.1817 3.85202C13.2512 4.72995 13.786 5.86329 13.786 7.25203ZM5.93241 15.6802C5.93241 16.9892 6.19579 17.8431 6.72256 18.2422C7.24932 18.6253 7.87186 18.8169 8.59017 18.8169C9.70754 18.8169 10.5855 18.4896 11.224 17.8352C11.8625 17.1647 12.1817 16.2948 12.1817 15.2253C12.1817 14.6187 12.0221 14.068 11.7029 13.5732C11.3996 13.0624 10.9606 12.6553 10.386 12.352C9.8113 12.0488 9.14087 11.8971 8.37468 11.8971C8.10331 11.8971 7.81599 11.8652 7.5127 11.8013C7.22538 11.7375 6.99392 11.6657 6.81833 11.5858C6.57889 11.4741 6.45918 11.2985 6.45918 11.0591C6.45918 10.7718 6.57091 10.6281 6.79439 10.6281C6.85824 10.6281 6.98594 10.66 7.17749 10.7239C7.385 10.7718 7.65636 10.7957 7.99158 10.7957C9.07703 10.7957 9.91506 10.4765 10.5057 9.83795C11.1122 9.19945 11.4155 8.35344 11.4155 7.29992C11.4155 6.29428 11.0723 5.47221 10.386 4.83371C9.71553 4.19521 8.76576 3.87596 7.53664 3.87596C6.46716 3.87596 5.93241 4.2431 5.93241 4.97737V15.6802ZM20.5469 11.4182C20.8183 10.3488 21.2333 9.48678 21.792 8.83232C22.3666 8.17785 22.9892 7.85062 23.6596 7.85062C24.33 7.85062 24.8807 8.0741 25.3117 8.52105C25.7586 8.95204 25.9821 9.54265 25.9821 10.2929C25.9821 10.8995 25.7586 11.4103 25.3117 11.8253C24.8647 12.2403 24.3061 12.4478 23.6356 12.4478C23.3323 12.4478 23.1807 12.36 23.1807 12.1844C23.1807 12.1366 23.2446 12.0168 23.3723 11.8253C23.5159 11.6337 23.6277 11.4342 23.7075 11.2267C23.8032 11.0192 23.8511 10.7877 23.8511 10.5323C23.8511 10.245 23.7713 10.0215 23.6117 9.8619C23.468 9.68631 23.2845 9.59852 23.061 9.59852C22.6779 9.59852 22.2788 9.82997 21.8638 10.2929C21.4647 10.7398 21.1215 11.4741 20.8342 12.4957C20.5469 13.5013 20.4032 14.7783 20.4032 16.3267C20.4032 17.045 20.4591 17.6277 20.5708 18.0746C20.6826 18.5056 20.8821 18.9206 21.1694 19.3197L21.4568 19.7028L21.1694 20.0619H16.9793L16.7159 19.3197L17.2187 19.2C17.6178 19.1042 17.8812 18.9366 18.0089 18.6971C18.1525 18.4417 18.2243 18.0108 18.2243 17.4042V10.676C18.2243 10.4844 18.1844 10.3488 18.1046 10.2689C18.0408 10.1891 17.9211 10.1492 17.7455 10.1492H16.6919L16.4765 9.52669C16.9394 9.11166 17.4661 8.76847 18.0567 8.4971C18.6633 8.22574 19.1901 8.09006 19.637 8.09006C19.8605 8.09006 20.0441 8.16189 20.1877 8.30555C20.3314 8.44922 20.4032 8.63279 20.4032 8.85626V11.4182H20.5469ZM38.4933 18.2662C37.9027 18.9525 37.2003 19.4793 36.3862 19.8464C35.5722 20.2136 34.6942 20.3972 33.7524 20.3972C32.651 20.3972 31.6853 20.1418 30.8552 19.631C30.0252 19.1201 29.3787 18.4018 28.9158 17.476C28.4688 16.5502 28.2454 15.4807 28.2454 14.2675C28.2454 12.9905 28.5008 11.8732 29.0116 10.9154C29.5224 9.94171 30.2407 9.19147 31.1665 8.66471C32.1083 8.12198 33.2017 7.85062 34.4468 7.85062C35.3247 7.85062 36.067 8.01823 36.6736 8.35344C37.2961 8.67269 37.759 9.10368 38.0623 9.6464C38.3656 10.1732 38.5172 10.7478 38.5172 11.3704C38.5172 12.0408 38.3337 12.6873 37.9665 13.3098C37.6154 13.9323 37.0966 14.4431 36.4102 14.8422C35.7238 15.2253 34.9017 15.4168 33.944 15.4168C33.4332 15.4168 32.8665 15.3211 32.244 15.1295C31.6214 14.938 31.3102 14.6586 31.3102 14.2915C31.3102 14.1638 31.3421 14.0441 31.4059 13.9323C31.4858 13.8206 31.5736 13.7647 31.6693 13.7647C31.7172 13.7647 31.8768 13.8206 32.1482 13.9323C32.4196 14.0281 32.7707 14.076 33.2017 14.076C34.1595 14.076 34.9017 13.8046 35.4285 13.2619C35.9712 12.7192 36.2426 12.0807 36.2426 11.3464C36.2426 10.7239 36.0431 10.1891 35.644 9.74218C35.2449 9.27927 34.6862 9.04781 33.9679 9.04781C32.9463 9.04781 32.1482 9.50274 31.5736 10.4126C30.9989 11.3065 30.7116 12.5915 30.7116 14.2675C30.7116 15.6882 31.0149 16.8056 31.6214 17.6197C32.228 18.4178 33.106 18.8169 34.2553 18.8169C35.66 18.8169 36.8252 18.3619 37.751 17.4521C37.8149 17.3882 37.8867 17.3563 37.9665 17.3563C38.0942 17.3563 38.2299 17.4361 38.3736 17.5957C38.5172 17.7394 38.5891 17.891 38.5891 18.0507C38.5891 18.1305 38.5571 18.2023 38.4933 18.2662ZM51.8131 17.9549C51.8131 18.4497 52.0526 18.6971 52.5314 18.6971C52.9305 18.6971 53.3296 18.5535 53.7286 18.2662L54.1836 18.8887C53.7685 19.3516 53.3216 19.7187 52.8427 19.9901C52.3638 20.2615 51.9249 20.3972 51.5258 20.3972C50.8713 20.3972 50.4004 20.1976 50.1131 19.7986C49.8258 19.3995 49.6821 18.753 49.6821 17.8591C49.0277 18.7849 48.3572 19.4394 47.6709 19.8225C46.9845 20.2056 46.2422 20.3972 45.4441 20.3972C44.6779 20.3972 43.9676 20.1817 43.3131 19.7507C42.6586 19.3037 42.1319 18.6413 41.7328 17.7633C41.3497 16.8854 41.1582 15.8239 41.1582 14.5788C41.1582 13.206 41.4056 12.0168 41.9004 11.0112C42.4112 9.9896 43.1295 9.20744 44.0554 8.66471C44.9971 8.12198 46.0986 7.85062 47.3596 7.85062C48.1896 7.85062 48.9479 7.95438 49.6342 8.16189V3.92385C49.6342 3.7323 49.5943 3.59662 49.5145 3.5168C49.4507 3.43699 49.331 3.39708 49.1554 3.39708H48.1018L47.8864 2.77455C48.3493 2.35952 48.876 2.01633 49.4666 1.74497C50.0732 1.4736 50.6 1.33792 51.0469 1.33792C51.2704 1.33792 51.454 1.40975 51.5976 1.55342C51.7413 1.69708 51.8131 1.88065 51.8131 2.10412V17.9549ZM43.6723 14.1239C43.6723 15.6403 43.9277 16.7577 44.4385 17.476C44.9652 18.1943 45.6197 18.5535 46.4018 18.5535C47.0403 18.5535 47.6389 18.3779 48.1976 18.0267C48.7563 17.6596 49.2511 17.1089 49.6821 16.3746V9.90979C48.9479 9.41495 48.1657 9.16753 47.3356 9.16753C46.1704 9.16753 45.2685 9.6065 44.63 10.4844C43.9915 11.3464 43.6723 12.5596 43.6723 14.1239ZM56.4945 4.30695C56.4945 4.00366 56.6621 3.66845 56.9973 3.30131C57.3485 2.91821 57.6678 2.72666 57.9551 2.72666C58.2584 2.72666 58.5856 2.91023 58.9368 3.27737C59.2879 3.6445 59.4635 3.9877 59.4635 4.30695C59.4635 4.61023 59.2879 4.94545 58.9368 5.31258C58.5856 5.67972 58.2584 5.86329 57.9551 5.86329C57.6837 5.86329 57.3724 5.67972 57.0213 5.31258C56.6701 4.94545 56.4945 4.61023 56.4945 4.30695ZM59.0565 17.4042C59.0565 18.5968 60.2608 18.2662 60.2608 18.2662V20.062C60.2608 20.062 60.2608 20.3972 58.7213 20.3972C58.0668 20.3972 57.5959 20.1976 57.3086 19.7986C57.0213 19.3995 56.8776 18.753 56.8776 17.8591V10.4365C56.8776 10.245 56.8377 10.1093 56.7579 10.0295C56.694 9.94969 56.5743 9.90979 56.3987 9.90979H55.3452L55.1297 9.28725C55.5926 8.87222 56.1194 8.52903 56.71 8.25767C57.3006 7.9863 57.8274 7.85062 58.2903 7.85062C58.5138 7.85062 58.6973 7.92245 58.841 8.06612C58.9847 8.20978 59.0565 8.39335 59.0565 8.61682V17.4042ZM66.8747 16.2309C66.8747 16.9812 66.9305 17.5798 67.0423 18.0267C67.154 18.4737 67.3536 18.9047 67.6409 19.3197L67.9282 19.7028L67.6409 20.0619H63.4507L63.1873 19.3197L63.6902 19.2C64.0892 19.1042 64.3526 18.9366 64.4803 18.6971C64.624 18.4417 64.6958 18.0108 64.6958 17.4042V10.676C64.6958 10.4844 64.6559 10.3488 64.5761 10.2689C64.5122 10.1891 64.3925 10.1492 64.2169 10.1492H63.1634L62.9479 9.52669C63.4108 9.11166 63.9376 8.76847 64.5282 8.4971C65.1348 8.22574 65.6615 8.09006 66.1085 8.09006C66.332 8.09006 66.5155 8.16189 66.6592 8.30555C66.8029 8.44922 66.8747 8.63279 66.8747 8.85626V11.4182C67.2897 10.3807 67.9122 9.52669 68.7423 8.85626C69.5723 8.18583 70.4423 7.85062 71.3522 7.85062C72.4695 7.85062 73.2836 8.19382 73.7944 8.8802C74.3052 9.56659 74.5606 10.66 74.5606 12.1605V17.9549C74.5606 18.4976 74.8001 18.769 75.2789 18.769C75.6461 18.769 76.0451 18.6014 76.4761 18.2662L76.9311 18.8887C76.516 19.3516 76.0691 19.7187 75.5902 19.9901C75.1113 20.2615 74.6644 20.3972 74.2494 20.3972C73.5949 20.3972 73.124 20.1976 72.8367 19.7986C72.5494 19.3995 72.4057 18.753 72.4057 17.8591V12.1605C72.4057 10.5323 71.7193 9.71824 70.3465 9.71824C69.6601 9.71824 69.0536 9.9896 68.5268 10.5323C68.016 11.075 67.609 11.8412 67.3057 12.8309C67.0183 13.8206 66.8747 14.9539 66.8747 16.2309Z"/>
<path d="M7.60848 33.1352C7.17749 33.1352 6.82631 33.1911 6.55495 33.3028C6.28359 33.3986 6.12396 33.4465 6.07608 33.4465C5.9803 33.4465 5.89251 33.3906 5.81269 33.2789C5.74884 33.1672 5.71692 33.0474 5.71692 32.9197C5.71692 32.7282 5.78875 32.5845 5.93241 32.4887C6.66669 32.0258 7.47279 31.7944 8.35073 31.7944C9.34041 31.7944 10.2183 32.0418 10.9845 32.5366C11.7667 33.0315 12.3733 33.7179 12.8043 34.5958C13.2353 35.4737 13.4508 36.4714 13.4508 37.5888C13.4508 38.8658 13.1794 40.023 12.6367 41.0606C12.0939 42.0822 11.3517 42.8883 10.4099 43.4789C9.46811 44.0536 8.4066 44.3409 7.22538 44.3409C6.29955 44.3409 5.43758 44.2052 4.63945 43.9339C3.84133 43.6625 3.21081 43.2954 2.74789 42.8324V27.8676C2.74789 27.676 2.70799 27.5404 2.62818 27.4606C2.56433 27.3807 2.44461 27.3408 2.26902 27.3408H1.21549L1 26.7183C1.46291 26.3033 1.98968 25.9601 2.58029 25.6887C3.1709 25.4174 3.69766 25.2817 4.16058 25.2817C4.38405 25.2817 4.56762 25.3535 4.71128 25.4972C4.85494 25.6408 4.92678 25.8244 4.92678 26.0479V42.2339C5.30988 42.5052 5.69298 42.7047 6.07608 42.8324C6.47514 42.9442 6.93007 43.0001 7.44087 43.0001C8.51036 43.0001 9.35637 42.5611 9.97891 41.6831C10.6014 40.7892 10.9127 39.5841 10.9127 38.0676C10.9127 37.1099 10.7691 36.2559 10.4817 35.5057C10.2104 34.7554 9.82726 34.1728 9.33243 33.7578C8.83759 33.3427 8.26294 33.1352 7.60848 33.1352ZM24.8442 41.8029C24.1898 42.7287 23.5193 43.3832 22.833 43.7663C22.1466 44.1494 21.4043 44.3409 20.6062 44.3409C19.84 44.3409 19.1297 44.1254 18.4752 43.6944C17.8207 43.2475 17.294 42.585 16.8949 41.7071C16.5118 40.8292 16.3203 39.7676 16.3203 38.5226C16.3203 37.1498 16.5677 35.9606 17.0625 34.955C17.5733 33.9334 18.2916 33.1512 19.2175 32.6085C20.1592 32.0657 21.2607 31.7944 22.5217 31.7944C23.1442 31.7944 24.0222 31.8981 25.1555 32.1056C26.1133 32.2653 26.8316 32.361 27.3104 32.393L27.5738 32.7042L27.2865 33.1352C27.1748 33.2949 27.0949 33.4465 27.0471 33.5902C26.9992 33.7179 26.9752 33.8775 26.9752 34.069V41.8986C26.9752 42.987 27.4058 43.1907 27.9367 42.8085V44.0057C27.9367 44.3409 27.2133 44.3409 26.6879 44.3409C26.0334 44.3409 25.5625 44.1414 25.2752 43.7423C24.9879 43.3432 24.8442 42.6968 24.8442 41.8029ZM18.8344 38.0676C18.8344 39.5841 19.0898 40.7015 19.6006 41.4198C20.1273 42.1381 20.7818 42.4972 21.5639 42.4972C22.2024 42.4972 22.801 42.3216 23.3597 41.9705C23.9184 41.6033 24.4132 41.0526 24.8442 40.3184V33.8535C24.11 33.3587 23.3278 33.1113 22.4977 33.1113C21.3325 33.1113 20.4306 33.5503 19.7921 34.4282C19.1536 35.2902 18.8344 36.5033 18.8344 38.0676ZM34.7932 38.355C34.4899 38.2752 34.3383 38.1075 34.3383 37.8521C34.3383 37.7244 34.3622 37.6207 34.4101 37.5409C34.474 37.4451 34.5698 37.3972 34.6975 37.3972C34.7453 37.3972 34.905 37.4371 35.1763 37.5169C35.4477 37.5808 35.7989 37.6127 36.2299 37.6127C36.8205 37.6127 37.3233 37.493 37.7383 37.2536C38.1533 37.0141 38.4646 36.7028 38.6721 36.3197C38.8796 35.9366 38.9834 35.5456 38.9834 35.1465C38.9834 34.6676 38.8397 34.2686 38.5524 33.9493C38.281 33.6141 37.89 33.4465 37.3792 33.4465C36.597 33.4465 35.9106 33.7258 35.32 34.2845C34.7294 34.8432 34.2745 35.6334 33.9552 36.655C33.6519 37.6766 33.5003 38.8498 33.5003 40.1747C33.5003 40.9409 33.5561 41.5554 33.6679 42.0184C33.7796 42.4653 33.9791 42.8803 34.2665 43.2634L34.5538 43.6465L34.2665 44.0057C34.2665 44.0057 31.7831 44.0057 30.9297 44.0057C30.5542 42.9476 31.3214 42.5089 31.3214 41.3479V27.8676C31.3214 27.676 31.2815 27.5404 31.2017 27.4606C31.1378 27.3807 31.0181 27.3408 30.8425 27.3408H29.789L29.5735 26.7183C30.0364 26.3033 30.5632 25.9601 31.1538 25.6887C31.7604 25.4174 32.2871 25.2817 32.7341 25.2817C32.9575 25.2817 33.1411 25.3535 33.2848 25.4972C33.4284 25.6408 33.5003 25.8244 33.5003 26.0479V35.362C33.8993 34.3085 34.4979 33.4545 35.2961 32.8C36.1101 32.1296 36.9562 31.7944 37.8341 31.7944C38.8876 31.7944 39.7017 32.0977 40.2764 32.7042C40.851 33.3108 41.1383 34.0531 41.1383 34.931C41.1383 35.4897 40.9947 36.0404 40.7073 36.5831C40.436 37.1099 40.0289 37.5648 39.4862 37.9479C38.9594 38.3151 38.3289 38.5385 37.5947 38.6183L39.4623 42.162C39.59 42.4174 39.7336 42.593 39.8933 42.6888C40.0529 42.7846 40.2444 42.8324 40.4679 42.8324C40.6754 42.8324 40.8909 42.7766 41.1144 42.6648C41.3379 42.5531 41.5454 42.4015 41.7369 42.2099L42.2397 42.8324C41.5055 43.8381 40.6515 44.3409 39.6778 44.3409C39.1989 44.3409 38.7918 44.2451 38.4566 44.0536C38.1374 43.862 37.858 43.5986 37.6186 43.2634C37.3951 42.9282 37.1158 42.4414 36.7806 41.8029L35.0087 38.4268L34.7932 38.355ZM54.5225 42.2099C53.9319 42.8963 53.2296 43.4231 52.4155 43.7902C51.6014 44.1573 50.7234 44.3409 49.7817 44.3409C48.6802 44.3409 47.7145 44.0855 46.8845 43.5747C46.0544 43.0639 45.4079 42.3456 44.945 41.4198C44.4981 40.4939 44.2746 39.4245 44.2746 38.2113C44.2746 36.9343 44.53 35.8169 45.0408 34.8592C45.5516 33.8855 46.2699 33.1352 47.1957 32.6085C48.1375 32.0657 49.2309 31.7944 50.476 31.7944C51.354 31.7944 52.0962 31.962 52.7028 32.2972C53.3253 32.6164 53.7882 33.0474 54.0915 33.5902C54.3948 34.1169 54.5465 34.6916 54.5465 35.3141C54.5465 35.9845 54.3629 36.631 53.9958 37.2536C53.6446 37.8761 53.1258 38.3869 52.4394 38.786C51.753 39.1691 50.931 39.3606 49.9732 39.3606C49.4624 39.3606 48.8957 39.2648 48.2732 39.0733C47.6507 38.8817 47.3394 38.6024 47.3394 38.2352C47.3394 38.1075 47.3713 37.9878 47.4352 37.8761C47.515 37.7644 47.6028 37.7085 47.6985 37.7085C47.7464 37.7085 47.9061 37.7644 48.1774 37.8761C48.4488 37.9719 48.8 38.0198 49.2309 38.0198C50.1887 38.0198 50.931 37.7484 51.4577 37.2057C52.0004 36.6629 52.2718 36.0244 52.2718 35.2902C52.2718 34.6676 52.0723 34.1329 51.6732 33.6859C51.2741 33.223 50.7155 32.9916 49.9971 32.9916C48.9755 32.9916 48.1774 33.4465 47.6028 34.3564C47.0281 35.2503 46.7408 36.5352 46.7408 38.2113C46.7408 39.632 47.0441 40.7493 47.6507 41.5634C48.2572 42.3616 49.1352 42.7606 50.2845 42.7606C51.6892 42.7606 52.8544 42.3057 53.7803 41.3958C53.8441 41.332 53.9159 41.3 53.9958 41.3C54.1235 41.3 54.2591 41.3799 54.4028 41.5395C54.5465 41.6831 54.6183 41.8348 54.6183 41.9944C54.6183 42.0742 54.5864 42.1461 54.5225 42.2099ZM61.3775 35.362C61.6489 34.2925 62.0639 33.4305 62.6226 32.7761C63.1973 32.1216 63.8198 31.7944 64.4902 31.7944C65.1606 31.7944 65.7113 32.0178 66.1423 32.4648C66.5893 32.8958 66.8128 33.4864 66.8128 34.2366C66.8128 34.8432 66.5893 35.354 66.1423 35.769C65.6954 36.1841 65.1367 36.3916 64.4663 36.3916C64.163 36.3916 64.0113 36.3038 64.0113 36.1282C64.0113 36.0803 64.0752 35.9606 64.2029 35.769C64.3466 35.5775 64.4583 35.378 64.5381 35.1704C64.6339 34.9629 64.6818 34.7315 64.6818 34.4761C64.6818 34.1888 64.602 33.9653 64.4423 33.8057C64.2987 33.6301 64.1151 33.5423 63.8916 33.5423C63.5085 33.5423 63.1095 33.7737 62.6944 34.2366C62.2954 34.6836 61.9522 35.4179 61.6649 36.4395C61.3775 37.4451 61.2339 38.7221 61.2339 40.2705C61.2339 40.9888 61.2897 41.5714 61.4015 42.0184C61.5132 42.4493 61.7127 42.8644 62.0001 43.2634L62.2874 43.6465L62.0001 44.0057H57.8099L57.5465 43.2634L58.0494 43.1437C58.4484 43.0479 58.7118 42.8803 58.8395 42.6409C58.9832 42.3855 59.055 41.9545 59.055 41.3479V34.6197C59.055 34.4282 59.0151 34.2925 58.9353 34.2127C58.8714 34.1329 58.7517 34.093 58.5761 34.093H57.5226L57.3071 33.4704C57.77 33.0554 58.2968 32.7122 58.8874 32.4409C59.494 32.1695 60.0207 32.0338 60.4677 32.0338C60.6911 32.0338 60.8747 32.1056 61.0184 32.2493C61.162 32.393 61.2339 32.5765 61.2339 32.8V35.362H61.3775ZM75.6845 50.6621C74.8066 50.6621 74.0563 50.4944 73.4338 50.1592C72.8112 49.84 72.3483 49.417 72.045 48.8902C71.7418 48.3794 71.5901 47.8287 71.5901 47.2381C71.5901 46.44 71.8615 45.7536 72.4042 45.1789C72.9469 44.6203 73.6892 44.3409 74.631 44.3409C74.7906 44.3409 74.9023 44.3648 74.9662 44.4127C75.046 44.4766 75.0859 44.5404 75.0859 44.6043C75.0859 44.6681 74.9742 44.8198 74.7507 45.0592C74.5272 45.2987 74.3277 45.586 74.1521 45.9212C73.9925 46.2564 73.9127 46.6794 73.9127 47.1902C73.9127 47.8287 74.0962 48.3555 74.4634 48.7705C74.8465 49.2015 75.3573 49.417 75.9958 49.417C76.9854 49.417 77.7117 49.0099 78.1746 48.1959C78.6376 47.3818 78.869 46.2883 78.869 44.9156V41.3719C78.5019 42.0742 77.9512 42.6329 77.2169 43.0479C76.4826 43.447 75.6765 43.6465 74.7986 43.6465C73.6652 43.6465 72.7793 43.3033 72.1408 42.617C71.5023 41.9146 71.1831 40.9329 71.1831 39.6719V34.3564C71.1831 34.1648 71.1432 34.0291 71.0633 33.9493C70.9995 33.8695 70.8798 33.8296 70.7042 33.8296H69.6507L69.4352 33.2071C69.8502 32.792 70.353 32.4488 70.9436 32.1775C71.5502 31.9061 72.1009 31.7704 72.5957 31.7704C72.8192 31.7704 73.0028 31.8423 73.1465 31.9859C73.2901 32.1296 73.3619 32.3132 73.3619 32.5366V39.1212C73.3619 40.0789 73.5535 40.8052 73.9366 41.3C74.3197 41.7949 74.8784 42.0423 75.6127 42.0423C76.6821 42.0423 77.5122 41.6432 78.1028 40.8451C78.7094 40.031 79.0127 38.9137 79.0127 37.493C79.0127 36.1841 78.9568 35.2104 78.8451 34.5718C78.7333 33.9333 78.4779 33.3507 78.0789 32.824L77.7915 32.4409L78.0789 32.0817L81 31.7704V44.5325C81 46.4958 80.5211 48.0043 79.5634 49.0578C78.6216 50.1273 77.3286 50.6621 75.6845 50.6621Z"/>
</mask>
<path d="M13.786 7.25203C13.786 8.14593 13.5705 8.95204 13.1395 9.67035C12.7245 10.3887 12.1019 10.9473 11.2719 11.3464C12.3414 11.6976 13.1714 12.2323 13.762 12.9506C14.3686 13.669 14.6719 14.4671 14.6719 15.345C14.6719 16.7976 14.177 17.9469 13.1874 18.7929C12.1977 19.6389 10.6174 20.0619 8.44651 20.0619H1.7662L1.47888 19.2479L2.02958 19.1042C2.63616 18.9286 3.0432 18.6971 3.25071 18.4098C3.45823 18.1225 3.56198 17.6117 3.56198 16.8774V5.0492C3.56198 4.84169 3.52207 4.69803 3.44226 4.61822C3.36245 4.52244 3.22677 4.47455 3.03522 4.47455H1.64648L1.35916 3.58863C2.04554 3.31727 2.94743 3.07783 4.0648 2.87032C5.18218 2.64685 6.25964 2.53511 7.29721 2.53511C9.48407 2.53511 11.1122 2.97408 12.1817 3.85202C13.2512 4.72995 13.786 5.86329 13.786 7.25203ZM5.93241 15.6802C5.93241 16.9892 6.19579 17.8431 6.72256 18.2422C7.24932 18.6253 7.87186 18.8169 8.59017 18.8169C9.70754 18.8169 10.5855 18.4896 11.224 17.8352C11.8625 17.1647 12.1817 16.2948 12.1817 15.2253C12.1817 14.6187 12.0221 14.068 11.7029 13.5732C11.3996 13.0624 10.9606 12.6553 10.386 12.352C9.8113 12.0488 9.14087 11.8971 8.37468 11.8971C8.10331 11.8971 7.81599 11.8652 7.5127 11.8013C7.22538 11.7375 6.99392 11.6657 6.81833 11.5858C6.57889 11.4741 6.45918 11.2985 6.45918 11.0591C6.45918 10.7718 6.57091 10.6281 6.79439 10.6281C6.85824 10.6281 6.98594 10.66 7.17749 10.7239C7.385 10.7718 7.65636 10.7957 7.99158 10.7957C9.07703 10.7957 9.91506 10.4765 10.5057 9.83795C11.1122 9.19945 11.4155 8.35344 11.4155 7.29992C11.4155 6.29428 11.0723 5.47221 10.386 4.83371C9.71553 4.19521 8.76576 3.87596 7.53664 3.87596C6.46716 3.87596 5.93241 4.2431 5.93241 4.97737V15.6802ZM20.5469 11.4182C20.8183 10.3488 21.2333 9.48678 21.792 8.83232C22.3666 8.17785 22.9892 7.85062 23.6596 7.85062C24.33 7.85062 24.8807 8.0741 25.3117 8.52105C25.7586 8.95204 25.9821 9.54265 25.9821 10.2929C25.9821 10.8995 25.7586 11.4103 25.3117 11.8253C24.8647 12.2403 24.3061 12.4478 23.6356 12.4478C23.3323 12.4478 23.1807 12.36 23.1807 12.1844C23.1807 12.1366 23.2446 12.0168 23.3723 11.8253C23.5159 11.6337 23.6277 11.4342 23.7075 11.2267C23.8032 11.0192 23.8511 10.7877 23.8511 10.5323C23.8511 10.245 23.7713 10.0215 23.6117 9.8619C23.468 9.68631 23.2845 9.59852 23.061 9.59852C22.6779 9.59852 22.2788 9.82997 21.8638 10.2929C21.4647 10.7398 21.1215 11.4741 20.8342 12.4957C20.5469 13.5013 20.4032 14.7783 20.4032 16.3267C20.4032 17.045 20.4591 17.6277 20.5708 18.0746C20.6826 18.5056 20.8821 18.9206 21.1694 19.3197L21.4568 19.7028L21.1694 20.0619H16.9793L16.7159 19.3197L17.2187 19.2C17.6178 19.1042 17.8812 18.9366 18.0089 18.6971C18.1525 18.4417 18.2243 18.0108 18.2243 17.4042V10.676C18.2243 10.4844 18.1844 10.3488 18.1046 10.2689C18.0408 10.1891 17.9211 10.1492 17.7455 10.1492H16.6919L16.4765 9.52669C16.9394 9.11166 17.4661 8.76847 18.0567 8.4971C18.6633 8.22574 19.1901 8.09006 19.637 8.09006C19.8605 8.09006 20.0441 8.16189 20.1877 8.30555C20.3314 8.44922 20.4032 8.63279 20.4032 8.85626V11.4182H20.5469ZM38.4933 18.2662C37.9027 18.9525 37.2003 19.4793 36.3862 19.8464C35.5722 20.2136 34.6942 20.3972 33.7524 20.3972C32.651 20.3972 31.6853 20.1418 30.8552 19.631C30.0252 19.1201 29.3787 18.4018 28.9158 17.476C28.4688 16.5502 28.2454 15.4807 28.2454 14.2675C28.2454 12.9905 28.5008 11.8732 29.0116 10.9154C29.5224 9.94171 30.2407 9.19147 31.1665 8.66471C32.1083 8.12198 33.2017 7.85062 34.4468 7.85062C35.3247 7.85062 36.067 8.01823 36.6736 8.35344C37.2961 8.67269 37.759 9.10368 38.0623 9.6464C38.3656 10.1732 38.5172 10.7478 38.5172 11.3704C38.5172 12.0408 38.3337 12.6873 37.9665 13.3098C37.6154 13.9323 37.0966 14.4431 36.4102 14.8422C35.7238 15.2253 34.9017 15.4168 33.944 15.4168C33.4332 15.4168 32.8665 15.3211 32.244 15.1295C31.6214 14.938 31.3102 14.6586 31.3102 14.2915C31.3102 14.1638 31.3421 14.0441 31.4059 13.9323C31.4858 13.8206 31.5736 13.7647 31.6693 13.7647C31.7172 13.7647 31.8768 13.8206 32.1482 13.9323C32.4196 14.0281 32.7707 14.076 33.2017 14.076C34.1595 14.076 34.9017 13.8046 35.4285 13.2619C35.9712 12.7192 36.2426 12.0807 36.2426 11.3464C36.2426 10.7239 36.0431 10.1891 35.644 9.74218C35.2449 9.27927 34.6862 9.04781 33.9679 9.04781C32.9463 9.04781 32.1482 9.50274 31.5736 10.4126C30.9989 11.3065 30.7116 12.5915 30.7116 14.2675C30.7116 15.6882 31.0149 16.8056 31.6214 17.6197C32.228 18.4178 33.106 18.8169 34.2553 18.8169C35.66 18.8169 36.8252 18.3619 37.751 17.4521C37.8149 17.3882 37.8867 17.3563 37.9665 17.3563C38.0942 17.3563 38.2299 17.4361 38.3736 17.5957C38.5172 17.7394 38.5891 17.891 38.5891 18.0507C38.5891 18.1305 38.5571 18.2023 38.4933 18.2662ZM51.8131 17.9549C51.8131 18.4497 52.0526 18.6971 52.5314 18.6971C52.9305 18.6971 53.3296 18.5535 53.7286 18.2662L54.1836 18.8887C53.7685 19.3516 53.3216 19.7187 52.8427 19.9901C52.3638 20.2615 51.9249 20.3972 51.5258 20.3972C50.8713 20.3972 50.4004 20.1976 50.1131 19.7986C49.8258 19.3995 49.6821 18.753 49.6821 17.8591C49.0277 18.7849 48.3572 19.4394 47.6709 19.8225C46.9845 20.2056 46.2422 20.3972 45.4441 20.3972C44.6779 20.3972 43.9676 20.1817 43.3131 19.7507C42.6586 19.3037 42.1319 18.6413 41.7328 17.7633C41.3497 16.8854 41.1582 15.8239 41.1582 14.5788C41.1582 13.206 41.4056 12.0168 41.9004 11.0112C42.4112 9.9896 43.1295 9.20744 44.0554 8.66471C44.9971 8.12198 46.0986 7.85062 47.3596 7.85062C48.1896 7.85062 48.9479 7.95438 49.6342 8.16189V3.92385C49.6342 3.7323 49.5943 3.59662 49.5145 3.5168C49.4507 3.43699 49.331 3.39708 49.1554 3.39708H48.1018L47.8864 2.77455C48.3493 2.35952 48.876 2.01633 49.4666 1.74497C50.0732 1.4736 50.6 1.33792 51.0469 1.33792C51.2704 1.33792 51.454 1.40975 51.5976 1.55342C51.7413 1.69708 51.8131 1.88065 51.8131 2.10412V17.9549ZM43.6723 14.1239C43.6723 15.6403 43.9277 16.7577 44.4385 17.476C44.9652 18.1943 45.6197 18.5535 46.4018 18.5535C47.0403 18.5535 47.6389 18.3779 48.1976 18.0267C48.7563 17.6596 49.2511 17.1089 49.6821 16.3746V9.90979C48.9479 9.41495 48.1657 9.16753 47.3356 9.16753C46.1704 9.16753 45.2685 9.6065 44.63 10.4844C43.9915 11.3464 43.6723 12.5596 43.6723 14.1239ZM56.4945 4.30695C56.4945 4.00366 56.6621 3.66845 56.9973 3.30131C57.3485 2.91821 57.6678 2.72666 57.9551 2.72666C58.2584 2.72666 58.5856 2.91023 58.9368 3.27737C59.2879 3.6445 59.4635 3.9877 59.4635 4.30695C59.4635 4.61023 59.2879 4.94545 58.9368 5.31258C58.5856 5.67972 58.2584 5.86329 57.9551 5.86329C57.6837 5.86329 57.3724 5.67972 57.0213 5.31258C56.6701 4.94545 56.4945 4.61023 56.4945 4.30695ZM59.0565 17.4042C59.0565 18.5968 60.2608 18.2662 60.2608 18.2662V20.062C60.2608 20.062 60.2608 20.3972 58.7213 20.3972C58.0668 20.3972 57.5959 20.1976 57.3086 19.7986C57.0213 19.3995 56.8776 18.753 56.8776 17.8591V10.4365C56.8776 10.245 56.8377 10.1093 56.7579 10.0295C56.694 9.94969 56.5743 9.90979 56.3987 9.90979H55.3452L55.1297 9.28725C55.5926 8.87222 56.1194 8.52903 56.71 8.25767C57.3006 7.9863 57.8274 7.85062 58.2903 7.85062C58.5138 7.85062 58.6973 7.92245 58.841 8.06612C58.9847 8.20978 59.0565 8.39335 59.0565 8.61682V17.4042ZM66.8747 16.2309C66.8747 16.9812 66.9305 17.5798 67.0423 18.0267C67.154 18.4737 67.3536 18.9047 67.6409 19.3197L67.9282 19.7028L67.6409 20.0619H63.4507L63.1873 19.3197L63.6902 19.2C64.0892 19.1042 64.3526 18.9366 64.4803 18.6971C64.624 18.4417 64.6958 18.0108 64.6958 17.4042V10.676C64.6958 10.4844 64.6559 10.3488 64.5761 10.2689C64.5122 10.1891 64.3925 10.1492 64.2169 10.1492H63.1634L62.9479 9.52669C63.4108 9.11166 63.9376 8.76847 64.5282 8.4971C65.1348 8.22574 65.6615 8.09006 66.1085 8.09006C66.332 8.09006 66.5155 8.16189 66.6592 8.30555C66.8029 8.44922 66.8747 8.63279 66.8747 8.85626V11.4182C67.2897 10.3807 67.9122 9.52669 68.7423 8.85626C69.5723 8.18583 70.4423 7.85062 71.3522 7.85062C72.4695 7.85062 73.2836 8.19382 73.7944 8.8802C74.3052 9.56659 74.5606 10.66 74.5606 12.1605V17.9549C74.5606 18.4976 74.8001 18.769 75.2789 18.769C75.6461 18.769 76.0451 18.6014 76.4761 18.2662L76.9311 18.8887C76.516 19.3516 76.0691 19.7187 75.5902 19.9901C75.1113 20.2615 74.6644 20.3972 74.2494 20.3972C73.5949 20.3972 73.124 20.1976 72.8367 19.7986C72.5494 19.3995 72.4057 18.753 72.4057 17.8591V12.1605C72.4057 10.5323 71.7193 9.71824 70.3465 9.71824C69.6601 9.71824 69.0536 9.9896 68.5268 10.5323C68.016 11.075 67.609 11.8412 67.3057 12.8309C67.0183 13.8206 66.8747 14.9539 66.8747 16.2309Z" fill="#704A24"/>
<path d="M7.60848 33.1352C7.17749 33.1352 6.82631 33.1911 6.55495 33.3028C6.28359 33.3986 6.12396 33.4465 6.07608 33.4465C5.9803 33.4465 5.89251 33.3906 5.81269 33.2789C5.74884 33.1672 5.71692 33.0474 5.71692 32.9197C5.71692 32.7282 5.78875 32.5845 5.93241 32.4887C6.66669 32.0258 7.47279 31.7944 8.35073 31.7944C9.34041 31.7944 10.2183 32.0418 10.9845 32.5366C11.7667 33.0315 12.3733 33.7179 12.8043 34.5958C13.2353 35.4737 13.4508 36.4714 13.4508 37.5888C13.4508 38.8658 13.1794 40.023 12.6367 41.0606C12.0939 42.0822 11.3517 42.8883 10.4099 43.4789C9.46811 44.0536 8.4066 44.3409 7.22538 44.3409C6.29955 44.3409 5.43758 44.2052 4.63945 43.9339C3.84133 43.6625 3.21081 43.2954 2.74789 42.8324V27.8676C2.74789 27.676 2.70799 27.5404 2.62818 27.4606C2.56433 27.3807 2.44461 27.3408 2.26902 27.3408H1.21549L1 26.7183C1.46291 26.3033 1.98968 25.9601 2.58029 25.6887C3.1709 25.4174 3.69766 25.2817 4.16058 25.2817C4.38405 25.2817 4.56762 25.3535 4.71128 25.4972C4.85494 25.6408 4.92678 25.8244 4.92678 26.0479V42.2339C5.30988 42.5052 5.69298 42.7047 6.07608 42.8324C6.47514 42.9442 6.93007 43.0001 7.44087 43.0001C8.51036 43.0001 9.35637 42.5611 9.97891 41.6831C10.6014 40.7892 10.9127 39.5841 10.9127 38.0676C10.9127 37.1099 10.7691 36.2559 10.4817 35.5057C10.2104 34.7554 9.82726 34.1728 9.33243 33.7578C8.83759 33.3427 8.26294 33.1352 7.60848 33.1352ZM24.8442 41.8029C24.1898 42.7287 23.5193 43.3832 22.833 43.7663C22.1466 44.1494 21.4043 44.3409 20.6062 44.3409C19.84 44.3409 19.1297 44.1254 18.4752 43.6944C17.8207 43.2475 17.294 42.585 16.8949 41.7071C16.5118 40.8292 16.3203 39.7676 16.3203 38.5226C16.3203 37.1498 16.5677 35.9606 17.0625 34.955C17.5733 33.9334 18.2916 33.1512 19.2175 32.6085C20.1592 32.0657 21.2607 31.7944 22.5217 31.7944C23.1442 31.7944 24.0222 31.8981 25.1555 32.1056C26.1133 32.2653 26.8316 32.361 27.3104 32.393L27.5738 32.7042L27.2865 33.1352C27.1748 33.2949 27.0949 33.4465 27.0471 33.5902C26.9992 33.7179 26.9752 33.8775 26.9752 34.069V41.8986C26.9752 42.987 27.4058 43.1907 27.9367 42.8085V44.0057C27.9367 44.3409 27.2133 44.3409 26.6879 44.3409C26.0334 44.3409 25.5625 44.1414 25.2752 43.7423C24.9879 43.3432 24.8442 42.6968 24.8442 41.8029ZM18.8344 38.0676C18.8344 39.5841 19.0898 40.7015 19.6006 41.4198C20.1273 42.1381 20.7818 42.4972 21.5639 42.4972C22.2024 42.4972 22.801 42.3216 23.3597 41.9705C23.9184 41.6033 24.4132 41.0526 24.8442 40.3184V33.8535C24.11 33.3587 23.3278 33.1113 22.4977 33.1113C21.3325 33.1113 20.4306 33.5503 19.7921 34.4282C19.1536 35.2902 18.8344 36.5033 18.8344 38.0676ZM34.7932 38.355C34.4899 38.2752 34.3383 38.1075 34.3383 37.8521C34.3383 37.7244 34.3622 37.6207 34.4101 37.5409C34.474 37.4451 34.5698 37.3972 34.6975 37.3972C34.7453 37.3972 34.905 37.4371 35.1763 37.5169C35.4477 37.5808 35.7989 37.6127 36.2299 37.6127C36.8205 37.6127 37.3233 37.493 37.7383 37.2536C38.1533 37.0141 38.4646 36.7028 38.6721 36.3197C38.8796 35.9366 38.9834 35.5456 38.9834 35.1465C38.9834 34.6676 38.8397 34.2686 38.5524 33.9493C38.281 33.6141 37.89 33.4465 37.3792 33.4465C36.597 33.4465 35.9106 33.7258 35.32 34.2845C34.7294 34.8432 34.2745 35.6334 33.9552 36.655C33.6519 37.6766 33.5003 38.8498 33.5003 40.1747C33.5003 40.9409 33.5561 41.5554 33.6679 42.0184C33.7796 42.4653 33.9791 42.8803 34.2665 43.2634L34.5538 43.6465L34.2665 44.0057C34.2665 44.0057 31.7831 44.0057 30.9297 44.0057C30.5542 42.9476 31.3214 42.5089 31.3214 41.3479V27.8676C31.3214 27.676 31.2815 27.5404 31.2017 27.4606C31.1378 27.3807 31.0181 27.3408 30.8425 27.3408H29.789L29.5735 26.7183C30.0364 26.3033 30.5632 25.9601 31.1538 25.6887C31.7604 25.4174 32.2871 25.2817 32.7341 25.2817C32.9575 25.2817 33.1411 25.3535 33.2848 25.4972C33.4284 25.6408 33.5003 25.8244 33.5003 26.0479V35.362C33.8993 34.3085 34.4979 33.4545 35.2961 32.8C36.1101 32.1296 36.9562 31.7944 37.8341 31.7944C38.8876 31.7944 39.7017 32.0977 40.2764 32.7042C40.851 33.3108 41.1383 34.0531 41.1383 34.931C41.1383 35.4897 40.9947 36.0404 40.7073 36.5831C40.436 37.1099 40.0289 37.5648 39.4862 37.9479C38.9594 38.3151 38.3289 38.5385 37.5947 38.6183L39.4623 42.162C39.59 42.4174 39.7336 42.593 39.8933 42.6888C40.0529 42.7846 40.2444 42.8324 40.4679 42.8324C40.6754 42.8324 40.8909 42.7766 41.1144 42.6648C41.3379 42.5531 41.5454 42.4015 41.7369 42.2099L42.2397 42.8324C41.5055 43.8381 40.6515 44.3409 39.6778 44.3409C39.1989 44.3409 38.7918 44.2451 38.4566 44.0536C38.1374 43.862 37.858 43.5986 37.6186 43.2634C37.3951 42.9282 37.1158 42.4414 36.7806 41.8029L35.0087 38.4268L34.7932 38.355ZM54.5225 42.2099C53.9319 42.8963 53.2296 43.4231 52.4155 43.7902C51.6014 44.1573 50.7234 44.3409 49.7817 44.3409C48.6802 44.3409 47.7145 44.0855 46.8845 43.5747C46.0544 43.0639 45.4079 42.3456 44.945 41.4198C44.4981 40.4939 44.2746 39.4245 44.2746 38.2113C44.2746 36.9343 44.53 35.8169 45.0408 34.8592C45.5516 33.8855 46.2699 33.1352 47.1957 32.6085C48.1375 32.0657 49.2309 31.7944 50.476 31.7944C51.354 31.7944 52.0962 31.962 52.7028 32.2972C53.3253 32.6164 53.7882 33.0474 54.0915 33.5902C54.3948 34.1169 54.5465 34.6916 54.5465 35.3141C54.5465 35.9845 54.3629 36.631 53.9958 37.2536C53.6446 37.8761 53.1258 38.3869 52.4394 38.786C51.753 39.1691 50.931 39.3606 49.9732 39.3606C49.4624 39.3606 48.8957 39.2648 48.2732 39.0733C47.6507 38.8817 47.3394 38.6024 47.3394 38.2352C47.3394 38.1075 47.3713 37.9878 47.4352 37.8761C47.515 37.7644 47.6028 37.7085 47.6985 37.7085C47.7464 37.7085 47.9061 37.7644 48.1774 37.8761C48.4488 37.9719 48.8 38.0198 49.2309 38.0198C50.1887 38.0198 50.931 37.7484 51.4577 37.2057C52.0004 36.6629 52.2718 36.0244 52.2718 35.2902C52.2718 34.6676 52.0723 34.1329 51.6732 33.6859C51.2741 33.223 50.7155 32.9916 49.9971 32.9916C48.9755 32.9916 48.1774 33.4465 47.6028 34.3564C47.0281 35.2503 46.7408 36.5352 46.7408 38.2113C46.7408 39.632 47.0441 40.7493 47.6507 41.5634C48.2572 42.3616 49.1352 42.7606 50.2845 42.7606C51.6892 42.7606 52.8544 42.3057 53.7803 41.3958C53.8441 41.332 53.9159 41.3 53.9958 41.3C54.1235 41.3 54.2591 41.3799 54.4028 41.5395C54.5465 41.6831 54.6183 41.8348 54.6183 41.9944C54.6183 42.0742 54.5864 42.1461 54.5225 42.2099ZM61.3775 35.362C61.6489 34.2925 62.0639 33.4305 62.6226 32.7761C63.1973 32.1216 63.8198 31.7944 64.4902 31.7944C65.1606 31.7944 65.7113 32.0178 66.1423 32.4648C66.5893 32.8958 66.8128 33.4864 66.8128 34.2366C66.8128 34.8432 66.5893 35.354 66.1423 35.769C65.6954 36.1841 65.1367 36.3916 64.4663 36.3916C64.163 36.3916 64.0113 36.3038 64.0113 36.1282C64.0113 36.0803 64.0752 35.9606 64.2029 35.769C64.3466 35.5775 64.4583 35.378 64.5381 35.1704C64.6339 34.9629 64.6818 34.7315 64.6818 34.4761C64.6818 34.1888 64.602 33.9653 64.4423 33.8057C64.2987 33.6301 64.1151 33.5423 63.8916 33.5423C63.5085 33.5423 63.1095 33.7737 62.6944 34.2366C62.2954 34.6836 61.9522 35.4179 61.6649 36.4395C61.3775 37.4451 61.2339 38.7221 61.2339 40.2705C61.2339 40.9888 61.2897 41.5714 61.4015 42.0184C61.5132 42.4493 61.7127 42.8644 62.0001 43.2634L62.2874 43.6465L62.0001 44.0057H57.8099L57.5465 43.2634L58.0494 43.1437C58.4484 43.0479 58.7118 42.8803 58.8395 42.6409C58.9832 42.3855 59.055 41.9545 59.055 41.3479V34.6197C59.055 34.4282 59.0151 34.2925 58.9353 34.2127C58.8714 34.1329 58.7517 34.093 58.5761 34.093H57.5226L57.3071 33.4704C57.77 33.0554 58.2968 32.7122 58.8874 32.4409C59.494 32.1695 60.0207 32.0338 60.4677 32.0338C60.6911 32.0338 60.8747 32.1056 61.0184 32.2493C61.162 32.393 61.2339 32.5765 61.2339 32.8V35.362H61.3775ZM75.6845 50.6621C74.8066 50.6621 74.0563 50.4944 73.4338 50.1592C72.8112 49.84 72.3483 49.417 72.045 48.8902C71.7418 48.3794 71.5901 47.8287 71.5901 47.2381C71.5901 46.44 71.8615 45.7536 72.4042 45.1789C72.9469 44.6203 73.6892 44.3409 74.631 44.3409C74.7906 44.3409 74.9023 44.3648 74.9662 44.4127C75.046 44.4766 75.0859 44.5404 75.0859 44.6043C75.0859 44.6681 74.9742 44.8198 74.7507 45.0592C74.5272 45.2987 74.3277 45.586 74.1521 45.9212C73.9925 46.2564 73.9127 46.6794 73.9127 47.1902C73.9127 47.8287 74.0962 48.3555 74.4634 48.7705C74.8465 49.2015 75.3573 49.417 75.9958 49.417C76.9854 49.417 77.7117 49.0099 78.1746 48.1959C78.6376 47.3818 78.869 46.2883 78.869 44.9156V41.3719C78.5019 42.0742 77.9512 42.6329 77.2169 43.0479C76.4826 43.447 75.6765 43.6465 74.7986 43.6465C73.6652 43.6465 72.7793 43.3033 72.1408 42.617C71.5023 41.9146 71.1831 40.9329 71.1831 39.6719V34.3564C71.1831 34.1648 71.1432 34.0291 71.0633 33.9493C70.9995 33.8695 70.8798 33.8296 70.7042 33.8296H69.6507L69.4352 33.2071C69.8502 32.792 70.353 32.4488 70.9436 32.1775C71.5502 31.9061 72.1009 31.7704 72.5957 31.7704C72.8192 31.7704 73.0028 31.8423 73.1465 31.9859C73.2901 32.1296 73.3619 32.3132 73.3619 32.5366V39.1212C73.3619 40.0789 73.5535 40.8052 73.9366 41.3C74.3197 41.7949 74.8784 42.0423 75.6127 42.0423C76.6821 42.0423 77.5122 41.6432 78.1028 40.8451C78.7094 40.031 79.0127 38.9137 79.0127 37.493C79.0127 36.1841 78.9568 35.2104 78.8451 34.5718C78.7333 33.9333 78.4779 33.3507 78.0789 32.824L77.7915 32.4409L78.0789 32.0817L81 31.7704V44.5325C81 46.4958 80.5211 48.0043 79.5634 49.0578C78.6216 50.1273 77.3286 50.6621 75.6845 50.6621Z" fill="#704A24"/>
<path d="M13.786 7.25203C13.786 8.14593 13.5705 8.95204 13.1395 9.67035C12.7245 10.3887 12.1019 10.9473 11.2719 11.3464C12.3414 11.6976 13.1714 12.2323 13.762 12.9506C14.3686 13.669 14.6719 14.4671 14.6719 15.345C14.6719 16.7976 14.177 17.9469 13.1874 18.7929C12.1977 19.6389 10.6174 20.0619 8.44651 20.0619H1.7662L1.47888 19.2479L2.02958 19.1042C2.63616 18.9286 3.0432 18.6971 3.25071 18.4098C3.45823 18.1225 3.56198 17.6117 3.56198 16.8774V5.0492C3.56198 4.84169 3.52207 4.69803 3.44226 4.61822C3.36245 4.52244 3.22677 4.47455 3.03522 4.47455H1.64648L1.35916 3.58863C2.04554 3.31727 2.94743 3.07783 4.0648 2.87032C5.18218 2.64685 6.25964 2.53511 7.29721 2.53511C9.48407 2.53511 11.1122 2.97408 12.1817 3.85202C13.2512 4.72995 13.786 5.86329 13.786 7.25203ZM5.93241 15.6802C5.93241 16.9892 6.19579 17.8431 6.72256 18.2422C7.24932 18.6253 7.87186 18.8169 8.59017 18.8169C9.70754 18.8169 10.5855 18.4896 11.224 17.8352C11.8625 17.1647 12.1817 16.2948 12.1817 15.2253C12.1817 14.6187 12.0221 14.068 11.7029 13.5732C11.3996 13.0624 10.9606 12.6553 10.386 12.352C9.8113 12.0488 9.14087 11.8971 8.37468 11.8971C8.10331 11.8971 7.81599 11.8652 7.5127 11.8013C7.22538 11.7375 6.99392 11.6657 6.81833 11.5858C6.57889 11.4741 6.45918 11.2985 6.45918 11.0591C6.45918 10.7718 6.57091 10.6281 6.79439 10.6281C6.85824 10.6281 6.98594 10.66 7.17749 10.7239C7.385 10.7718 7.65636 10.7957 7.99158 10.7957C9.07703 10.7957 9.91506 10.4765 10.5057 9.83795C11.1122 9.19945 11.4155 8.35344 11.4155 7.29992C11.4155 6.29428 11.0723 5.47221 10.386 4.83371C9.71553 4.19521 8.76576 3.87596 7.53664 3.87596C6.46716 3.87596 5.93241 4.2431 5.93241 4.97737V15.6802ZM20.5469 11.4182C20.8183 10.3488 21.2333 9.48678 21.792 8.83232C22.3666 8.17785 22.9892 7.85062 23.6596 7.85062C24.33 7.85062 24.8807 8.0741 25.3117 8.52105C25.7586 8.95204 25.9821 9.54265 25.9821 10.2929C25.9821 10.8995 25.7586 11.4103 25.3117 11.8253C24.8647 12.2403 24.3061 12.4478 23.6356 12.4478C23.3323 12.4478 23.1807 12.36 23.1807 12.1844C23.1807 12.1366 23.2446 12.0168 23.3723 11.8253C23.5159 11.6337 23.6277 11.4342 23.7075 11.2267C23.8032 11.0192 23.8511 10.7877 23.8511 10.5323C23.8511 10.245 23.7713 10.0215 23.6117 9.8619C23.468 9.68631 23.2845 9.59852 23.061 9.59852C22.6779 9.59852 22.2788 9.82997 21.8638 10.2929C21.4647 10.7398 21.1215 11.4741 20.8342 12.4957C20.5469 13.5013 20.4032 14.7783 20.4032 16.3267C20.4032 17.045 20.4591 17.6277 20.5708 18.0746C20.6826 18.5056 20.8821 18.9206 21.1694 19.3197L21.4568 19.7028L21.1694 20.0619H16.9793L16.7159 19.3197L17.2187 19.2C17.6178 19.1042 17.8812 18.9366 18.0089 18.6971C18.1525 18.4417 18.2243 18.0108 18.2243 17.4042V10.676C18.2243 10.4844 18.1844 10.3488 18.1046 10.2689C18.0408 10.1891 17.9211 10.1492 17.7455 10.1492H16.6919L16.4765 9.52669C16.9394 9.11166 17.4661 8.76847 18.0567 8.4971C18.6633 8.22574 19.1901 8.09006 19.637 8.09006C19.8605 8.09006 20.0441 8.16189 20.1877 8.30555C20.3314 8.44922 20.4032 8.63279 20.4032 8.85626V11.4182H20.5469ZM38.4933 18.2662C37.9027 18.9525 37.2003 19.4793 36.3862 19.8464C35.5722 20.2136 34.6942 20.3972 33.7524 20.3972C32.651 20.3972 31.6853 20.1418 30.8552 19.631C30.0252 19.1201 29.3787 18.4018 28.9158 17.476C28.4688 16.5502 28.2454 15.4807 28.2454 14.2675C28.2454 12.9905 28.5008 11.8732 29.0116 10.9154C29.5224 9.94171 30.2407 9.19147 31.1665 8.66471C32.1083 8.12198 33.2017 7.85062 34.4468 7.85062C35.3247 7.85062 36.067 8.01823 36.6736 8.35344C37.2961 8.67269 37.759 9.10368 38.0623 9.6464C38.3656 10.1732 38.5172 10.7478 38.5172 11.3704C38.5172 12.0408 38.3337 12.6873 37.9665 13.3098C37.6154 13.9323 37.0966 14.4431 36.4102 14.8422C35.7238 15.2253 34.9017 15.4168 33.944 15.4168C33.4332 15.4168 32.8665 15.3211 32.244 15.1295C31.6214 14.938 31.3102 14.6586 31.3102 14.2915C31.3102 14.1638 31.3421 14.0441 31.4059 13.9323C31.4858 13.8206 31.5736 13.7647 31.6693 13.7647C31.7172 13.7647 31.8768 13.8206 32.1482 13.9323C32.4196 14.0281 32.7707 14.076 33.2017 14.076C34.1595 14.076 34.9017 13.8046 35.4285 13.2619C35.9712 12.7192 36.2426 12.0807 36.2426 11.3464C36.2426 10.7239 36.0431 10.1891 35.644 9.74218C35.2449 9.27927 34.6862 9.04781 33.9679 9.04781C32.9463 9.04781 32.1482 9.50274 31.5736 10.4126C30.9989 11.3065 30.7116 12.5915 30.7116 14.2675C30.7116 15.6882 31.0149 16.8056 31.6214 17.6197C32.228 18.4178 33.106 18.8169 34.2553 18.8169C35.66 18.8169 36.8252 18.3619 37.751 17.4521C37.8149 17.3882 37.8867 17.3563 37.9665 17.3563C38.0942 17.3563 38.2299 17.4361 38.3736 17.5957C38.5172 17.7394 38.5891 17.891 38.5891 18.0507C38.5891 18.1305 38.5571 18.2023 38.4933 18.2662ZM51.8131 17.9549C51.8131 18.4497 52.0526 18.6971 52.5314 18.6971C52.9305 18.6971 53.3296 18.5535 53.7286 18.2662L54.1836 18.8887C53.7685 19.3516 53.3216 19.7187 52.8427 19.9901C52.3638 20.2615 51.9249 20.3972 51.5258 20.3972C50.8713 20.3972 50.4004 20.1976 50.1131 19.7986C49.8258 19.3995 49.6821 18.753 49.6821 17.8591C49.0277 18.7849 48.3572 19.4394 47.6709 19.8225C46.9845 20.2056 46.2422 20.3972 45.4441 20.3972C44.6779 20.3972 43.9676 20.1817 43.3131 19.7507C42.6586 19.3037 42.1319 18.6413 41.7328 17.7633C41.3497 16.8854 41.1582 15.8239 41.1582 14.5788C41.1582 13.206 41.4056 12.0168 41.9004 11.0112C42.4112 9.9896 43.1295 9.20744 44.0554 8.66471C44.9971 8.12198 46.0986 7.85062 47.3596 7.85062C48.1896 7.85062 48.9479 7.95438 49.6342 8.16189V3.92385C49.6342 3.7323 49.5943 3.59662 49.5145 3.5168C49.4507 3.43699 49.331 3.39708 49.1554 3.39708H48.1018L47.8864 2.77455C48.3493 2.35952 48.876 2.01633 49.4666 1.74497C50.0732 1.4736 50.6 1.33792 51.0469 1.33792C51.2704 1.33792 51.454 1.40975 51.5976 1.55342C51.7413 1.69708 51.8131 1.88065 51.8131 2.10412V17.9549ZM43.6723 14.1239C43.6723 15.6403 43.9277 16.7577 44.4385 17.476C44.9652 18.1943 45.6197 18.5535 46.4018 18.5535C47.0403 18.5535 47.6389 18.3779 48.1976 18.0267C48.7563 17.6596 49.2511 17.1089 49.6821 16.3746V9.90979C48.9479 9.41495 48.1657 9.16753 47.3356 9.16753C46.1704 9.16753 45.2685 9.6065 44.63 10.4844C43.9915 11.3464 43.6723 12.5596 43.6723 14.1239ZM56.4945 4.30695C56.4945 4.00366 56.6621 3.66845 56.9973 3.30131C57.3485 2.91821 57.6678 2.72666 57.9551 2.72666C58.2584 2.72666 58.5856 2.91023 58.9368 3.27737C59.2879 3.6445 59.4635 3.9877 59.4635 4.30695C59.4635 4.61023 59.2879 4.94545 58.9368 5.31258C58.5856 5.67972 58.2584 5.86329 57.9551 5.86329C57.6837 5.86329 57.3724 5.67972 57.0213 5.31258C56.6701 4.94545 56.4945 4.61023 56.4945 4.30695ZM59.0565 17.4042C59.0565 18.5968 60.2608 18.2662 60.2608 18.2662V20.062C60.2608 20.062 60.2608 20.3972 58.7213 20.3972C58.0668 20.3972 57.5959 20.1976 57.3086 19.7986C57.0213 19.3995 56.8776 18.753 56.8776 17.8591V10.4365C56.8776 10.245 56.8377 10.1093 56.7579 10.0295C56.694 9.94969 56.5743 9.90979 56.3987 9.90979H55.3452L55.1297 9.28725C55.5926 8.87222 56.1194 8.52903 56.71 8.25767C57.3006 7.9863 57.8274 7.85062 58.2903 7.85062C58.5138 7.85062 58.6973 7.92245 58.841 8.06612C58.9847 8.20978 59.0565 8.39335 59.0565 8.61682V17.4042ZM66.8747 16.2309C66.8747 16.9812 66.9305 17.5798 67.0423 18.0267C67.154 18.4737 67.3536 18.9047 67.6409 19.3197L67.9282 19.7028L67.6409 20.0619H63.4507L63.1873 19.3197L63.6902 19.2C64.0892 19.1042 64.3526 18.9366 64.4803 18.6971C64.624 18.4417 64.6958 18.0108 64.6958 17.4042V10.676C64.6958 10.4844 64.6559 10.3488 64.5761 10.2689C64.5122 10.1891 64.3925 10.1492 64.2169 10.1492H63.1634L62.9479 9.52669C63.4108 9.11166 63.9376 8.76847 64.5282 8.4971C65.1348 8.22574 65.6615 8.09006 66.1085 8.09006C66.332 8.09006 66.5155 8.16189 66.6592 8.30555C66.8029 8.44922 66.8747 8.63279 66.8747 8.85626V11.4182C67.2897 10.3807 67.9122 9.52669 68.7423 8.85626C69.5723 8.18583 70.4423 7.85062 71.3522 7.85062C72.4695 7.85062 73.2836 8.19382 73.7944 8.8802C74.3052 9.56659 74.5606 10.66 74.5606 12.1605V17.9549C74.5606 18.4976 74.8001 18.769 75.2789 18.769C75.6461 18.769 76.0451 18.6014 76.4761 18.2662L76.9311 18.8887C76.516 19.3516 76.0691 19.7187 75.5902 19.9901C75.1113 20.2615 74.6644 20.3972 74.2494 20.3972C73.5949 20.3972 73.124 20.1976 72.8367 19.7986C72.5494 19.3995 72.4057 18.753 72.4057 17.8591V12.1605C72.4057 10.5323 71.7193 9.71824 70.3465 9.71824C69.6601 9.71824 69.0536 9.9896 68.5268 10.5323C68.016 11.075 67.609 11.8412 67.3057 12.8309C67.0183 13.8206 66.8747 14.9539 66.8747 16.2309Z" stroke="#704A24" stroke-width="1.4" stroke-linejoin="round" mask="url(#path-1-outside-1_1356_11966)"/>
<path d="M7.60848 33.1352C7.17749 33.1352 6.82631 33.1911 6.55495 33.3028C6.28359 33.3986 6.12396 33.4465 6.07608 33.4465C5.9803 33.4465 5.89251 33.3906 5.81269 33.2789C5.74884 33.1672 5.71692 33.0474 5.71692 32.9197C5.71692 32.7282 5.78875 32.5845 5.93241 32.4887C6.66669 32.0258 7.47279 31.7944 8.35073 31.7944C9.34041 31.7944 10.2183 32.0418 10.9845 32.5366C11.7667 33.0315 12.3733 33.7179 12.8043 34.5958C13.2353 35.4737 13.4508 36.4714 13.4508 37.5888C13.4508 38.8658 13.1794 40.023 12.6367 41.0606C12.0939 42.0822 11.3517 42.8883 10.4099 43.4789C9.46811 44.0536 8.4066 44.3409 7.22538 44.3409C6.29955 44.3409 5.43758 44.2052 4.63945 43.9339C3.84133 43.6625 3.21081 43.2954 2.74789 42.8324V27.8676C2.74789 27.676 2.70799 27.5404 2.62818 27.4606C2.56433 27.3807 2.44461 27.3408 2.26902 27.3408H1.21549L1 26.7183C1.46291 26.3033 1.98968 25.9601 2.58029 25.6887C3.1709 25.4174 3.69766 25.2817 4.16058 25.2817C4.38405 25.2817 4.56762 25.3535 4.71128 25.4972C4.85494 25.6408 4.92678 25.8244 4.92678 26.0479V42.2339C5.30988 42.5052 5.69298 42.7047 6.07608 42.8324C6.47514 42.9442 6.93007 43.0001 7.44087 43.0001C8.51036 43.0001 9.35637 42.5611 9.97891 41.6831C10.6014 40.7892 10.9127 39.5841 10.9127 38.0676C10.9127 37.1099 10.7691 36.2559 10.4817 35.5057C10.2104 34.7554 9.82726 34.1728 9.33243 33.7578C8.83759 33.3427 8.26294 33.1352 7.60848 33.1352ZM24.8442 41.8029C24.1898 42.7287 23.5193 43.3832 22.833 43.7663C22.1466 44.1494 21.4043 44.3409 20.6062 44.3409C19.84 44.3409 19.1297 44.1254 18.4752 43.6944C17.8207 43.2475 17.294 42.585 16.8949 41.7071C16.5118 40.8292 16.3203 39.7676 16.3203 38.5226C16.3203 37.1498 16.5677 35.9606 17.0625 34.955C17.5733 33.9334 18.2916 33.1512 19.2175 32.6085C20.1592 32.0657 21.2607 31.7944 22.5217 31.7944C23.1442 31.7944 24.0222 31.8981 25.1555 32.1056C26.1133 32.2653 26.8316 32.361 27.3104 32.393L27.5738 32.7042L27.2865 33.1352C27.1748 33.2949 27.0949 33.4465 27.0471 33.5902C26.9992 33.7179 26.9752 33.8775 26.9752 34.069V41.8986C26.9752 42.987 27.4058 43.1907 27.9367 42.8085V44.0057C27.9367 44.3409 27.2133 44.3409 26.6879 44.3409C26.0334 44.3409 25.5625 44.1414 25.2752 43.7423C24.9879 43.3432 24.8442 42.6968 24.8442 41.8029ZM18.8344 38.0676C18.8344 39.5841 19.0898 40.7015 19.6006 41.4198C20.1273 42.1381 20.7818 42.4972 21.5639 42.4972C22.2024 42.4972 22.801 42.3216 23.3597 41.9705C23.9184 41.6033 24.4132 41.0526 24.8442 40.3184V33.8535C24.11 33.3587 23.3278 33.1113 22.4977 33.1113C21.3325 33.1113 20.4306 33.5503 19.7921 34.4282C19.1536 35.2902 18.8344 36.5033 18.8344 38.0676ZM34.7932 38.355C34.4899 38.2752 34.3383 38.1075 34.3383 37.8521C34.3383 37.7244 34.3622 37.6207 34.4101 37.5409C34.474 37.4451 34.5698 37.3972 34.6975 37.3972C34.7453 37.3972 34.905 37.4371 35.1763 37.5169C35.4477 37.5808 35.7989 37.6127 36.2299 37.6127C36.8205 37.6127 37.3233 37.493 37.7383 37.2536C38.1533 37.0141 38.4646 36.7028 38.6721 36.3197C38.8796 35.9366 38.9834 35.5456 38.9834 35.1465C38.9834 34.6676 38.8397 34.2686 38.5524 33.9493C38.281 33.6141 37.89 33.4465 37.3792 33.4465C36.597 33.4465 35.9106 33.7258 35.32 34.2845C34.7294 34.8432 34.2745 35.6334 33.9552 36.655C33.6519 37.6766 33.5003 38.8498 33.5003 40.1747C33.5003 40.9409 33.5561 41.5554 33.6679 42.0184C33.7796 42.4653 33.9791 42.8803 34.2665 43.2634L34.5538 43.6465L34.2665 44.0057C34.2665 44.0057 31.7831 44.0057 30.9297 44.0057C30.5542 42.9476 31.3214 42.5089 31.3214 41.3479V27.8676C31.3214 27.676 31.2815 27.5404 31.2017 27.4606C31.1378 27.3807 31.0181 27.3408 30.8425 27.3408H29.789L29.5735 26.7183C30.0364 26.3033 30.5632 25.9601 31.1538 25.6887C31.7604 25.4174 32.2871 25.2817 32.7341 25.2817C32.9575 25.2817 33.1411 25.3535 33.2848 25.4972C33.4284 25.6408 33.5003 25.8244 33.5003 26.0479V35.362C33.8993 34.3085 34.4979 33.4545 35.2961 32.8C36.1101 32.1296 36.9562 31.7944 37.8341 31.7944C38.8876 31.7944 39.7017 32.0977 40.2764 32.7042C40.851 33.3108 41.1383 34.0531 41.1383 34.931C41.1383 35.4897 40.9947 36.0404 40.7073 36.5831C40.436 37.1099 40.0289 37.5648 39.4862 37.9479C38.9594 38.3151 38.3289 38.5385 37.5947 38.6183L39.4623 42.162C39.59 42.4174 39.7336 42.593 39.8933 42.6888C40.0529 42.7846 40.2444 42.8324 40.4679 42.8324C40.6754 42.8324 40.8909 42.7766 41.1144 42.6648C41.3379 42.5531 41.5454 42.4015 41.7369 42.2099L42.2397 42.8324C41.5055 43.8381 40.6515 44.3409 39.6778 44.3409C39.1989 44.3409 38.7918 44.2451 38.4566 44.0536C38.1374 43.862 37.858 43.5986 37.6186 43.2634C37.3951 42.9282 37.1158 42.4414 36.7806 41.8029L35.0087 38.4268L34.7932 38.355ZM54.5225 42.2099C53.9319 42.8963 53.2296 43.4231 52.4155 43.7902C51.6014 44.1573 50.7234 44.3409 49.7817 44.3409C48.6802 44.3409 47.7145 44.0855 46.8845 43.5747C46.0544 43.0639 45.4079 42.3456 44.945 41.4198C44.4981 40.4939 44.2746 39.4245 44.2746 38.2113C44.2746 36.9343 44.53 35.8169 45.0408 34.8592C45.5516 33.8855 46.2699 33.1352 47.1957 32.6085C48.1375 32.0657 49.2309 31.7944 50.476 31.7944C51.354 31.7944 52.0962 31.962 52.7028 32.2972C53.3253 32.6164 53.7882 33.0474 54.0915 33.5902C54.3948 34.1169 54.5465 34.6916 54.5465 35.3141C54.5465 35.9845 54.3629 36.631 53.9958 37.2536C53.6446 37.8761 53.1258 38.3869 52.4394 38.786C51.753 39.1691 50.931 39.3606 49.9732 39.3606C49.4624 39.3606 48.8957 39.2648 48.2732 39.0733C47.6507 38.8817 47.3394 38.6024 47.3394 38.2352C47.3394 38.1075 47.3713 37.9878 47.4352 37.8761C47.515 37.7644 47.6028 37.7085 47.6985 37.7085C47.7464 37.7085 47.9061 37.7644 48.1774 37.8761C48.4488 37.9719 48.8 38.0198 49.2309 38.0198C50.1887 38.0198 50.931 37.7484 51.4577 37.2057C52.0004 36.6629 52.2718 36.0244 52.2718 35.2902C52.2718 34.6676 52.0723 34.1329 51.6732 33.6859C51.2741 33.223 50.7155 32.9916 49.9971 32.9916C48.9755 32.9916 48.1774 33.4465 47.6028 34.3564C47.0281 35.2503 46.7408 36.5352 46.7408 38.2113C46.7408 39.632 47.0441 40.7493 47.6507 41.5634C48.2572 42.3616 49.1352 42.7606 50.2845 42.7606C51.6892 42.7606 52.8544 42.3057 53.7803 41.3958C53.8441 41.332 53.9159 41.3 53.9958 41.3C54.1235 41.3 54.2591 41.3799 54.4028 41.5395C54.5465 41.6831 54.6183 41.8348 54.6183 41.9944C54.6183 42.0742 54.5864 42.1461 54.5225 42.2099ZM61.3775 35.362C61.6489 34.2925 62.0639 33.4305 62.6226 32.7761C63.1973 32.1216 63.8198 31.7944 64.4902 31.7944C65.1606 31.7944 65.7113 32.0178 66.1423 32.4648C66.5893 32.8958 66.8128 33.4864 66.8128 34.2366C66.8128 34.8432 66.5893 35.354 66.1423 35.769C65.6954 36.1841 65.1367 36.3916 64.4663 36.3916C64.163 36.3916 64.0113 36.3038 64.0113 36.1282C64.0113 36.0803 64.0752 35.9606 64.2029 35.769C64.3466 35.5775 64.4583 35.378 64.5381 35.1704C64.6339 34.9629 64.6818 34.7315 64.6818 34.4761C64.6818 34.1888 64.602 33.9653 64.4423 33.8057C64.2987 33.6301 64.1151 33.5423 63.8916 33.5423C63.5085 33.5423 63.1095 33.7737 62.6944 34.2366C62.2954 34.6836 61.9522 35.4179 61.6649 36.4395C61.3775 37.4451 61.2339 38.7221 61.2339 40.2705C61.2339 40.9888 61.2897 41.5714 61.4015 42.0184C61.5132 42.4493 61.7127 42.8644 62.0001 43.2634L62.2874 43.6465L62.0001 44.0057H57.8099L57.5465 43.2634L58.0494 43.1437C58.4484 43.0479 58.7118 42.8803 58.8395 42.6409C58.9832 42.3855 59.055 41.9545 59.055 41.3479V34.6197C59.055 34.4282 59.0151 34.2925 58.9353 34.2127C58.8714 34.1329 58.7517 34.093 58.5761 34.093H57.5226L57.3071 33.4704C57.77 33.0554 58.2968 32.7122 58.8874 32.4409C59.494 32.1695 60.0207 32.0338 60.4677 32.0338C60.6911 32.0338 60.8747 32.1056 61.0184 32.2493C61.162 32.393 61.2339 32.5765 61.2339 32.8V35.362H61.3775ZM75.6845 50.6621C74.8066 50.6621 74.0563 50.4944 73.4338 50.1592C72.8112 49.84 72.3483 49.417 72.045 48.8902C71.7418 48.3794 71.5901 47.8287 71.5901 47.2381C71.5901 46.44 71.8615 45.7536 72.4042 45.1789C72.9469 44.6203 73.6892 44.3409 74.631 44.3409C74.7906 44.3409 74.9023 44.3648 74.9662 44.4127C75.046 44.4766 75.0859 44.5404 75.0859 44.6043C75.0859 44.6681 74.9742 44.8198 74.7507 45.0592C74.5272 45.2987 74.3277 45.586 74.1521 45.9212C73.9925 46.2564 73.9127 46.6794 73.9127 47.1902C73.9127 47.8287 74.0962 48.3555 74.4634 48.7705C74.8465 49.2015 75.3573 49.417 75.9958 49.417C76.9854 49.417 77.7117 49.0099 78.1746 48.1959C78.6376 47.3818 78.869 46.2883 78.869 44.9156V41.3719C78.5019 42.0742 77.9512 42.6329 77.2169 43.0479C76.4826 43.447 75.6765 43.6465 74.7986 43.6465C73.6652 43.6465 72.7793 43.3033 72.1408 42.617C71.5023 41.9146 71.1831 40.9329 71.1831 39.6719V34.3564C71.1831 34.1648 71.1432 34.0291 71.0633 33.9493C70.9995 33.8695 70.8798 33.8296 70.7042 33.8296H69.6507L69.4352 33.2071C69.8502 32.792 70.353 32.4488 70.9436 32.1775C71.5502 31.9061 72.1009 31.7704 72.5957 31.7704C72.8192 31.7704 73.0028 31.8423 73.1465 31.9859C73.2901 32.1296 73.3619 32.3132 73.3619 32.5366V39.1212C73.3619 40.0789 73.5535 40.8052 73.9366 41.3C74.3197 41.7949 74.8784 42.0423 75.6127 42.0423C76.6821 42.0423 77.5122 41.6432 78.1028 40.8451C78.7094 40.031 79.0127 38.9137 79.0127 37.493C79.0127 36.1841 78.9568 35.2104 78.8451 34.5718C78.7333 33.9333 78.4779 33.3507 78.0789 32.824L77.7915 32.4409L78.0789 32.0817L81 31.7704V44.5325C81 46.4958 80.5211 48.0043 79.5634 49.0578C78.6216 50.1273 77.3286 50.6621 75.6845 50.6621Z" stroke="#704A24" stroke-width="1.4" stroke-linejoin="round" mask="url(#path-1-outside-1_1356_11966)"/>
</svg>
